<svg xmlns="http://www.w3.org/2000/svg" width="169.693" height="98.035" viewBox="0 0 169.693 98.035">
  <g id="デザインヤリタイロゴ" transform="translate(-194.556 -254.789)">
    <g id="グループ_2" data-name="グループ 2" transform="translate(194.675 266.65)">
      <g id="グループ_1" data-name="グループ 1">
        <path id="パス_1" data-name="パス 1" d="M196.136,355.341v-6.5a.078.078,0,0,1,.079-.078q.757,0,1.514-.025c13.873-1,17.077-5.713,17.649-12.378a.067.067,0,0,0-.083-.073c-6.677,1.393-13.354,2.968-20.031,1.934a.1.1,0,0,1-.082-.095V331.6a.069.069,0,0,1,.082-.07c12.4,1.626,24.8-4.864,37.2-3.266a.094.094,0,0,1,.082.091v6.521a.068.068,0,0,1-.082.069,34.8,34.8,0,0,0-9.864.035.1.1,0,0,0-.081.086c-.875,11.967-7.956,18.867-24.68,20.167q-.81.086-1.62.177A.074.074,0,0,1,196.136,355.341Zm36.33-31.713c-12.4-.932-24.8,4.238-37.2,3.257a.093.093,0,0,1-.082-.09v-6.482a.083.083,0,0,1,.082-.083c6.2-.093,12.4-.988,18.6-1.619,6.2-.689,12.4-1.115,18.6-1.618a.074.074,0,0,1,.082.075v6.482A.077.077,0,0,1,232.465,323.627Z" transform="translate(-195.181 -316.993)" fill="#231815"/>
      </g>
    </g>
    <g id="グループ_4" data-name="グループ 4" transform="translate(237.993 261.886)">
      <g id="グループ_3" data-name="グループ 3" transform="translate(0)">
        <path id="パス_2" data-name="パス 2" d="M426.07,331.026v-6.162a.082.082,0,0,1,.081-.08q.778-.022,1.557-.064c8.523-.628,13.951-2.679,17.248-5.715,3.3-3.1,4.464-7.177,4.464-13.237v-1.128a.069.069,0,0,0-.082-.068c-5.4.745-10.808,2.156-16.212,2.905a.1.1,0,0,0-.082.095v11.893a.094.094,0,0,1-.082.09,49.913,49.913,0,0,1-6.651.434.082.082,0,0,1-.082-.08V308.029a.085.085,0,0,0-.082-.085,29.885,29.885,0,0,1-3.694-.3.1.1,0,0,1-.082-.094V301.03a.074.074,0,0,1,.082-.075c1.231.1,2.463.14,3.694.126a.085.085,0,0,0,.082-.086q0-3.033,0-6.127a.092.092,0,0,1,.082-.092c2.217-.145,4.434-.356,6.651-.584a.075.075,0,0,1,.082.079v6.207a.073.073,0,0,0,.082.076c5.4-.687,10.808-1.781,16.212-2.4a.092.092,0,0,0,.082-.087v-5.444a.087.087,0,0,1,.082-.082c2.23-.186,4.46-.355,6.69-.533a.072.072,0,0,1,.082.069v5.47a.077.077,0,0,0,.082.075q2.066-.062,4.133,0a.085.085,0,0,1,.082.084v6.522a.071.071,0,0,1-.082.071,35.112,35.112,0,0,0-4.133-.253.081.081,0,0,0-.082.079v1.089c0,15.567-7.464,23.962-28.523,25.723l-1.6.15A.072.072,0,0,1,426.07,331.026Z" transform="translate(-422.371 -292.011)" fill="#231815"/>
      </g>
    </g>
    <g id="グループ_6" data-name="グループ 6" transform="translate(281.429 257.509)">
      <g id="グループ_5" data-name="グループ 5">
        <path id="パス_3" data-name="パス 3" d="M675.14,307.477q-3.346.327-6.691.616a.074.074,0,0,1-.082-.073V288.475a.065.065,0,0,0-.093-.062,68.142,68.142,0,0,1-8.43,2.426,37.808,37.808,0,0,1-9.566.939.1.1,0,0,1-.091-.094V284.9a.069.069,0,0,1,.075-.071,35.635,35.635,0,0,0,8.19-.657c9.5-2.229,14.943-4.6,18.183-6.639,3.239-2.119,4.28-3.916,4.987-6.737q.147-.557.295-1.111a.09.09,0,0,1,.08-.063c2.391-.186,4.782-.36,7.174-.567a.074.074,0,0,1,.081.089q-.166.933-.331,1.852c-1.31,7.366-5.416,10.611-13.639,14.491a.1.1,0,0,0-.059.087v21.809A.1.1,0,0,1,675.14,307.477Z" transform="translate(-650.187 -269.053)" fill="#231815"/>
      </g>
    </g>
    <g id="グループ_8" data-name="グループ 8" transform="translate(325.899 254.789)">
      <g id="グループ_7" data-name="グループ 7">
        <path id="パス_4" data-name="パス 4" d="M885.08,293.345q-.788.064-1.575.132a.074.074,0,0,1-.082-.075v-6.679a.077.077,0,0,1,.082-.077q.787.045,1.575.064c11,.036,17.792-3.662,22.011-8.047,4.479-4.816,6.565-11.87,6.565-21.817v-1.431a.087.087,0,0,1,.082-.081c2.3-.179,4.593-.346,6.889-.544a.074.074,0,0,1,.082.075v1.563c0,13.105-2.792,20.558-8.786,26.822C906.348,289.164,898.069,292.594,885.08,293.345Z" transform="translate(-883.423 -254.789)" fill="#231815"/>
      </g>
    </g>
    <g id="グループ_10" data-name="グループ 10" transform="translate(194.556 315.468)">
      <g id="グループ_9" data-name="グループ 9">
        <path id="パス_5" data-name="パス 5" d="M209.989,609.818c-2.29.207-4.58.392-6.871.572a.073.073,0,0,1-.082-.059q-1.439-11.49-2.878-24.653a.079.079,0,0,0-.086-.071,33.217,33.217,0,0,1-5.43.078.1.1,0,0,1-.086-.092v-6.9a.079.079,0,0,1,.079-.079c1.541-.011,3.082-.106,4.623-.254a.09.09,0,0,0,.079-.1q-.233-2.23-.466-4.483a.1.1,0,0,1,.082-.1c2.288-.2,4.576-.426,6.864-.64a.075.075,0,0,1,.082.071q.227,2.148.454,4.25a.073.073,0,0,0,.085.067c8.52-1.5,17.039-2.751,25.559-3.487a.076.076,0,0,1,.085.076v6.2c0,6.084-3.984,15.275-18.916,23.35q-1.036.505-2.072.993a.071.071,0,0,1-.108-.06v-7.253a.1.1,0,0,1,.056-.088q.537-.28,1.073-.564c8.682-4.775,12.245-10.7,12.8-15.458a.075.075,0,0,0-.088-.08c-5.869.65-11.738,2.254-17.607,3.459a.1.1,0,0,0-.078.106c.978,8.728,1.955,16.906,2.933,25.1A.089.089,0,0,1,209.989,609.818Z" transform="translate(-194.556 -573.034)" fill="#231815"/>
      </g>
    </g>
    <g id="グループ_12" data-name="グループ 12" transform="translate(240.658 310.045)">
      <g id="グループ_11" data-name="グループ 11">
        <path id="パス_6" data-name="パス 6" d="M437.862,583.722v-6.432a.078.078,0,0,1,.08-.077q.76,0,1.521-.026c8.868-.586,14.653-3.21,18.222-6.377,3.569-3.29,4.921-7.123,4.921-12.968V545.208a.086.086,0,0,1,.082-.081c2.244-.177,4.487-.338,6.731-.531a.074.074,0,0,1,.082.075v13.485c0,8.783-2.991,14.1-8.227,18.209-5.236,3.97-12.717,6.723-21.7,7.245q-.814.09-1.629.183A.073.073,0,0,1,437.862,583.722Zm5.341-12.763a28.092,28.092,0,0,1-6.77-.213.1.1,0,0,1-.082-.1v-23.1a.083.083,0,0,1,.082-.082c2.257-.026,4.514-.187,6.77-.4a.076.076,0,0,1,.082.081v23.722A.089.089,0,0,1,443.2,570.958Z" transform="translate(-436.35 -544.595)" fill="#231815"/>
      </g>
    </g>
    <g id="グループ_14" data-name="グループ 14" transform="translate(281.787 307.157)">
      <g id="グループ_13" data-name="グループ 13">
        <path id="パス_7" data-name="パス 7" d="M654.689,567.949v-6.274a.08.08,0,0,1,.08-.079q.762-.023,1.524-.065c13.194-1.095,19.78-5.578,22.835-11.25a.075.075,0,0,0-.073-.115c-6.795,1.011-13.59,3.029-20.385,3.372a.076.076,0,0,1-.082-.076v-5.036a.078.078,0,0,0-.13-.057,13.838,13.838,0,0,1-4.1,2.319q-1.092.374-2.185.67a.1.1,0,0,1-.114-.092V544a.069.069,0,0,1,.046-.067q.435-.156.871-.328c2.708-1.019,6.2-4.9,7.886-10.342l.366-1.173a.094.094,0,0,1,.078-.067c9.108-1.019,18.216-1.938,27.323-2.575a.073.073,0,0,1,.082.072v1.506a109.085,109.085,0,0,1-.578,11.963.085.085,0,0,0,.081.093q1.083.069,2.165.211a.1.1,0,0,1,.082.093v6.482a.069.069,0,0,1-.082.069,29.754,29.754,0,0,0-3.648-.314.079.079,0,0,0-.077.053c-4.094,11.545-15.085,17.043-30.26,18.167q-.812.086-1.623.176A.073.073,0,0,1,654.689,567.949Zm5.708-21.163c6.885-.644,13.769-2.739,20.654-3.487a.093.093,0,0,0,.082-.078c.257-2.069.443-4.639.5-6.981a.072.072,0,0,0-.083-.071c-5.231.473-10.462,1.508-15.693,2.319a.1.1,0,0,0-.072.056,30.012,30.012,0,0,1-5.448,8.108A.076.076,0,0,0,660.4,546.786Z" transform="translate(-652.063 -529.448)" fill="#231815"/>
      </g>
    </g>
    <g id="グループ_16" data-name="グループ 16" transform="translate(325.184 301.956)">
      <g id="グループ_15" data-name="グループ 15" transform="translate(0)">
        <path id="パス_8" data-name="パス 8" d="M904.621,540.593q-3.345.326-6.691.616a.073.073,0,0,1-.082-.073V521.59a.065.065,0,0,0-.093-.062,68.176,68.176,0,0,1-8.43,2.426,37.81,37.81,0,0,1-9.566.939.1.1,0,0,1-.091-.094v-6.785a.069.069,0,0,1,.075-.07,35.636,35.636,0,0,0,8.19-.657c9.5-2.229,14.943-4.6,18.183-6.639,3.239-2.119,4.28-3.916,4.987-6.737l.295-1.111a.089.089,0,0,1,.08-.063c2.391-.187,4.782-.36,7.173-.567a.074.074,0,0,1,.081.089q-.166.933-.331,1.852c-1.309,7.366-5.416,10.611-13.639,14.491a.1.1,0,0,0-.059.088V540.5A.1.1,0,0,1,904.621,540.593Z" transform="translate(-879.668 -502.169)" fill="#231815"/>
      </g>
    </g>
    <g id="グループ_18" data-name="グループ 18" transform="translate(273.706 256.568)">
      <g id="グループ_17" data-name="グループ 17" transform="translate(0 0)">
        <path id="パス_9" data-name="パス 9" d="M613.533,272.5c-1.285.055-2.57.271-3.855.335v-8.38c1.285-.055,2.57-.271,3.855-.335Z" transform="translate(-609.678 -264.119)" fill="#231815"/>
      </g>
    </g>
    <g id="グループ_20" data-name="グループ 20" transform="translate(279.211 256.09)">
      <g id="グループ_19" data-name="グループ 19" transform="translate(0 0)">
        <path id="パス_10" data-name="パス 10" d="M642.407,269.992c-1.285.055-2.57.271-3.855.335v-8.38c1.285-.055,2.57-.271,3.855-.335Z" transform="translate(-638.552 -261.612)" fill="#231815"/>
      </g>
    </g>
    <g id="グループ_22" data-name="グループ 22" transform="translate(225.43 258.993)">
      <g id="グループ_21" data-name="グループ 21">
        <path id="パス_11" data-name="パス 11" d="M362.545,277.311l-.559.06c-1.835.193-3.67.447-5.5.472v10.573c1.835-.152,3.67-.273,5.5-.473l.559-.06c1.835-.193,3.67-.447,5.505-.472V276.838C366.215,276.99,364.38,277.111,362.545,277.311Zm-1.1,9.622c-1.285.177-2.57.313-3.854.362v-8.34a33.1,33.1,0,0,0,3.854-.4Zm5.505-.634a33.028,33.028,0,0,0-3.855.4v-8.377c1.285-.177,2.57-.313,3.855-.362Z" transform="translate(-356.481 -276.838)" fill="#fff"/>
        <path id="パス_12" data-name="パス 12" d="M362.276,294.589c1.285-.049,2.57-.185,3.854-.362v-8.376a33.1,33.1,0,0,1-3.854.4Z" transform="translate(-361.171 -284.133)"/>
        <path id="パス_13" data-name="パス 13" d="M391.148,291.455a33.1,33.1,0,0,1,3.855-.4v-8.341c-1.285.049-2.57.185-3.855.362Z" transform="translate(-384.538 -281.595)"/>
      </g>
    </g>
    <g id="グループ_23" data-name="グループ 23" transform="translate(325.86 256.302)">
      <path id="パス_14" data-name="パス 14" d="M907.135,262.721c-7.974.434-15.948,1.691-23.921,2.077v6.8c7.974-.434,15.948-1.691,23.921-2.077Z" transform="translate(-883.214 -262.721)" fill="#231815"/>
    </g>
  </g>
</svg>
