<svg xmlns="http://www.w3.org/2000/svg" width="93" height="41" viewBox="0 0 93 41">
  <g id="グループ_37" data-name="グループ 37" transform="translate(-1109 -445)">
    <text id="Works" transform="translate(1109 455)" fill="#1a1a1a" font-size="14" font-family="DIN-Medium, DIN" font-weight="500" letter-spacing="-0.02em"><tspan x="0" y="0">Works</tspan></text>
    <text id="_10" data-name="10" transform="translate(1155 485)" fill="#1a1a1a" font-size="46" font-family="DIN-Light, DIN" font-weight="300" letter-spacing="-0.02em"><tspan x="0" y="0">10</tspan></text>
    <line id="線_11" data-name="線 11" y1="36" x2="19" transform="translate(1137.5 447.5)" fill="none" stroke="#1a1a1a" stroke-width="1"/>
    <path id="交差_2" data-name="交差 2" d="M31.073,32.66a7.991,7.991,0,0,1-2.738-1.817,8.131,8.131,0,0,1-1.77-2.76,9.58,9.58,0,0,1-.621-3.519V20.028H28.29v4.306a8.986,8.986,0,0,0,.391,2.714,6.171,6.171,0,0,0,1.2,2.185A5.574,5.574,0,0,0,31.855,30.7a7.107,7.107,0,0,0,5.382,0,5.57,5.57,0,0,0,1.978-1.472,6.185,6.185,0,0,0,1.2-2.185,8.986,8.986,0,0,0,.392-2.714V20.028h2.345v4.536a9.277,9.277,0,0,1-.644,3.519,8.606,8.606,0,0,1-1.771,2.76,7.752,7.752,0,0,1-2.714,1.817,9.692,9.692,0,0,1-6.945,0Zm-19.022.368v-13H14.4v13Z" transform="translate(1155 451.972)" fill="#fff" stroke="rgba(0,0,0,0)" stroke-miterlimit="10" stroke-width="1"/>
    <path id="交差_3" data-name="交差 3" d="M11.569,24.5,5.5,36Z" transform="translate(1132 447.5)" fill="none" stroke="#fff" stroke-width="1"/>
  </g>
</svg>
